<?xml version="1.0" encoding="utf-8"?>
<svg id="master-artboard" viewBox="0 0 841.9 595.3" version="1.1" xmlns="http://www.w3.org/2000/svg" x="0px" y="0px" width="841.9000244140625px" height="595.2999877929688px" enable-background="new 0 0 841.9 595.3"><rect id="ee-background" x="0" y="0" width="841.9000244140625" height="595.2999877929688" style="fill: white; fill-opacity: 0; pointer-events: none;"/>

<g transform="matrix(3.3988911194080536, 0, 0, 3.3988911194080536, 0.3058125656352617, -2759.7715601900327)"><g id="Layer_2_29_" transform="matrix(1, 0, 0, 1, 0, 0)">
	<g id="Layer_1-2_27_">
		<g>
			<path class="st0" d="M253.2,889c-3.9,0-6.7-5.2-7.6-6.9c-1.5-2.8-3.4-4.3-5.2-4.4c0,0,0,0,0,0c-1.8,0-3.7,1.5-5.3,4.2&#10;&#9;&#9;&#9;&#9;c-1.1,1.9-4.5,7.8-9,6.6c-4.5-1.3-4.3-8.1-4.2-10.3c0.1-3.1-0.7-5.4-2.3-6.4c-1.6-0.9-4-0.6-6.7,1c-1.9,1.1-7.8,4.5-11,1.2&#10;&#9;&#9;&#9;&#9;c-3.2-3.3,0.4-9.1,1.5-11c1.7-2.6,2.1-5.1,1.2-6.6c-0.9-1.6-3.2-2.5-6.3-2.5c-0.1,0-0.2,0-0.3,0c-2.5,0-8.8-0.1-9.9-4.5&#10;&#9;&#9;&#9;&#9;c-1.1-4.5,4.8-7.7,6.8-8.8c2.8-1.5,4.3-3.4,4.4-5.2c0-1.8-1.5-3.7-4.2-5.3c-1.9-1.1-7.8-4.5-6.6-9c1.3-4.5,8.1-4.3,10.3-4.2&#10;&#9;&#9;&#9;&#9;c3.1,0.1,5.4-0.7,6.4-2.3c0.9-1.6,0.6-4-1-6.7c-1.1-1.9-4.5-7.8-1.2-11.1c3.3-3.2,9.1,0.4,11,1.6c2.6,1.7,5.1,2.1,6.6,1.2&#10;&#9;&#9;&#9;&#9;c1.6-0.9,2.5-3.2,2.5-6.3c0-2.2,0-9,4.5-10.2c4.5-1.1,7.7,4.8,8.8,6.8c1.5,2.8,3.4,4.3,5.2,4.4c0,0,0,0,0,0&#10;&#9;&#9;&#9;&#9;c1.8,0,3.7-1.5,5.2-4.2c1.1-1.9,4.5-7.8,9-6.6c4.5,1.3,4.3,8.1,4.2,10.3c-0.1,3.1,0.7,5.4,2.3,6.4c1.6,0.9,4,0.6,6.7-1&#10;&#9;&#9;&#9;&#9;c1.9-1.1,7.8-4.5,11.1-1.2c3.2,3.3-0.4,9.1-1.6,11c-1.7,2.6-2.1,5.1-1.2,6.6c0.9,1.6,3.2,2.5,6.3,2.5c0.1,0,0.2,0,0.3,0&#10;&#9;&#9;&#9;&#9;c2.5,0,8.8,0.1,9.9,4.5c1.1,4.5-4.8,7.7-6.8,8.8c-2.7,1.5-4.3,3.3-4.3,5.2c0,1.8,1.5,3.8,4.2,5.3c1.9,1.1,7.8,4.5,6.5,9&#10;&#9;&#9;&#9;&#9;c-1.3,4.5-8.1,4.3-10.3,4.2c-3.1-0.1-5.4,0.7-6.4,2.3c-0.9,1.6-0.6,4,1,6.7c1.1,1.9,4.5,7.8,1.2,11c-3.3,3.2-9.1-0.3-11-1.5&#10;&#9;&#9;&#9;&#9;c-2.7-1.6-5.1-2.1-6.7-1.2c-1.6,0.9-2.5,3.2-2.5,6.3c0,2.2,0,9-4.5,10.2C254,889,253.6,889,253.2,889z M240.4,871.7&#10;&#9;&#9;&#9;&#9;c0,0,0.1,0,0.1,0c4.1,0.1,7.8,2.7,10.4,7.5c0.7,1.3,1.3,2.2,1.8,2.8c0.1-0.7,0.2-1.8,0.2-3.3c0-5.4,2-9.6,5.6-11.6&#10;&#9;&#9;&#9;&#9;c3.6-2,8.1-1.5,12.8,1.3c1.3,0.8,2.2,1.3,2.9,1.5c-0.3-0.7-0.7-1.7-1.4-3l0,0c-2.7-4.7-3.1-9.3-1-12.8c2.1-3.5,6.3-5.4,11.7-5.2&#10;&#9;&#9;&#9;&#9;c1.5,0,2.5,0,3.3-0.1c-0.6-0.5-1.4-1.1-2.7-1.8c-4.7-2.7-7.3-6.5-7.2-10.6c0.1-4.1,2.7-7.8,7.5-10.4c1.3-0.7,2.2-1.3,2.8-1.8&#10;&#9;&#9;&#9;&#9;c-0.7-0.1-1.7-0.2-3.3-0.2c0,0,0,0,0,0c-5.4,0-9.5-2-11.5-5.6s-1.5-8.1,1.4-12.7c0.8-1.2,1.2-2.2,1.5-2.8&#10;&#9;&#9;&#9;&#9;c-0.7,0.3-1.6,0.7-2.9,1.4c-4.7,2.7-9.3,3.1-12.8,1c-3.5-2.1-5.4-6.3-5.2-11.7c0-1.5,0-2.5-0.1-3.3c-0.5,0.6-1.1,1.4-1.8,2.7&#10;&#9;&#9;&#9;&#9;c-2.7,4.7-6.5,7.3-10.6,7.2c-4.1-0.1-7.8-2.7-10.4-7.5c-0.7-1.3-1.3-2.2-1.8-2.8c-0.1,0.7-0.2,1.8-0.2,3.3c0,5.5-2,9.6-5.6,11.6&#10;&#9;&#9;&#9;&#9;c-3.6,2-8.1,1.5-12.7-1.4c-1.2-0.8-2.2-1.2-2.9-1.5c0.3,0.7,0.7,1.6,1.4,2.9c2.7,4.7,3.1,9.2,1,12.8s-6.3,5.4-11.7,5.2&#10;&#9;&#9;&#9;&#9;c-1.5,0-2.6,0-3.3,0.1c0.6,0.5,1.4,1.1,2.7,1.8c4.7,2.7,7.3,6.5,7.2,10.6c-0.1,4.1-2.7,7.8-7.5,10.4c-1.3,0.7-2.2,1.3-2.8,1.8&#10;&#9;&#9;&#9;&#9;c0.7,0.1,1.8,0.2,3.3,0.2c0,0,0,0,0,0c5.4,0,9.5,2,11.5,5.6s1.5,8.1-1.4,12.7c-0.8,1.3-1.3,2.2-1.5,2.9c0.7-0.3,1.7-0.7,2.9-1.4&#10;&#9;&#9;&#9;&#9;c4.7-2.7,9.2-3.1,12.8-1c3.5,2.1,5.4,6.3,5.2,11.7c0,1.5,0,2.6,0.1,3.3c0.5-0.6,1.1-1.4,1.8-2.7&#10;&#9;&#9;&#9;&#9;C232.6,874.3,236.3,871.7,240.4,871.7z" style="fill: rgb(197, 202, 233);"/>
		</g>
	</g>
</g></g><path d="M 680.93017578125 130.5118408203125" style="fill: rgb(0, 0, 0); fill-opacity: 1; stroke: rgb(0, 0, 0); stroke-opacity: 1; stroke-width: 10; paint-order: stroke;"/></svg>