<?xml version="1.0" encoding="utf-8"?>
<svg id="master-artboard" viewBox="0 0 126.04763793945312 190.25827026367188" version="1.1" xmlns="http://www.w3.org/2000/svg" x="0px" y="0px" width="126.04763793945312px" height="190.25827026367188px" enable-background="new 0 0 841.9 595.3"><rect id="ee-background" x="0" y="0" width="126.04763793945312" height="190.25827026367188" style="fill: white; fill-opacity: 0; pointer-events: none;"/>
<path fill="#594A42" d="M675.7,254.4L675.7,254.4l116.3,0v0c0-18.9-15.3-34.2-34.2-34.2h-47.9&#10;&#9;&#9;&#9;C691.1,220.2,675.7,235.5,675.7,254.4z" transform="matrix(1, 0, 0, 1, -671.0165988068325, -69.1534660152002)"/><g transform="matrix(1, 0, 0, 1, -671.0165988068325, -69.1534660152002)">
				<path d="M 792.100024 157.300003 A 12.7 12.7 0 0 1 779.400024 170.000003 A 12.7 12.7 0 0 1 766.700025 157.300003 A 12.7 12.7 0 0 1 779.400024 144.600003 A 12.7 12.7 0 0 1 792.100024 157.300003 Z" fill="#F8AA97"/>
				<path d="M 786.900024 157.300003 A 7.5 7.5 0 0 1 779.400024 164.800003 A 7.5 7.5 0 0 1 771.900024 157.300003 A 7.5 7.5 0 0 1 779.400024 149.800003 A 7.5 7.5 0 0 1 786.900024 157.300003 Z" fill="#F58A74"/>
			</g><path d="M 701.100024 157.300003 A 12.7 12.7 0 0 1 688.400024 170.000003 A 12.7 12.7 0 0 1 675.700025 157.300003 A 12.7 12.7 0 0 1 688.400024 144.600003 A 12.7 12.7 0 0 1 701.100024 157.300003 Z" fill="#F8AA97" transform="matrix(1, 0, 0, 1, -671.0165988068325, -69.1534660152002)"/><path d="M 695.900024 157.300003 A 7.5 7.5 0 0 1 688.400024 164.800003 A 7.5 7.5 0 0 1 680.900024 157.300003 A 7.5 7.5 0 0 1 688.400024 149.800003 A 7.5 7.5 0 0 1 695.900024 157.300003 Z" fill="#F58A74" transform="matrix(1, 0, 0, 1, -671.0165988068325, -69.1534660152002)"/><path d="M 715.700012 220.199997 H 752.200012 V 254.399998 H 715.700012 V 220.199997 Z" fill="#FFC62D" transform="matrix(1, 0, 0, 1, -671.0165988068325, -69.1534660152002)" style="fill: rgb(194, 186, 245);"/><path fill="#726658" d="M733.9,240.4c10.1,0,18.2-8.2,18.2-18.2v-2h-36.5v2C715.7,232.2,723.8,240.4,733.9,240.4z" transform="matrix(1, 0, 0, 1, -671.0165988068325, -69.1534660152002)"/><path fill="#F8AA97" d="M722,183.5v38.7c0,6.5,5.3,11.9,11.9,11.9l0,0c6.5,0,11.9-5.3,11.9-11.9v-38.7H722z" transform="matrix(1, 0, 0, 1, -671.0165988068325, -69.1534660152002)"/><path fill="#F58A74" d="M722,202.8c0,6.5,5.2,12,11.7,12.1c0,0,0.1,0,0.1,0l0,0c0,0,0.1,0,0.1,0c6.5,0,11.7-5.5,11.7-12.1v-15.6&#10;&#9;&#9;&#9;H722V202.8z" transform="matrix(1, 0, 0, 1, -671.0165988068325, -69.1534660152002)"/><path fill="#F8AA97" d="M692.7,122.5v40.6c0,22.7,18.4,41.2,41.2,41.2h0c22.7,0,41.2-18.4,41.2-41.2v-40.6&#10;&#9;&#9;&#9;c0-15.3-12.4-27.7-27.7-27.7h-27C705.1,94.8,692.7,107.2,692.7,122.5z" transform="matrix(1, 0, 0, 1, -671.0165988068325, -69.1534660152002)" style="fill: rgb(255, 175, 155);"/><path fill="#E19B8A" d="M775.1,145.4c0,0,0,11.1-3.5,21.6c-1.6,4.6-7.4,6.1-11,2.9c-5.8-5.3-14.4-9.7-26.6-9.7&#10;&#9;&#9;&#9;c-12.2,0-20.7,4.4-26.6,9.7c-3.6,3.3-9.5,1.8-11-2.9c-3.6-10.5-3.5-21.6-3.5-21.6s0,0,0,0.1v16.8c0,23.1,18.9,42.4,42,42&#10;&#9;&#9;&#9;c22.4-0.4,40.4-18.7,40.4-41.2L775.1,145.4C775.1,145.4,775.1,145.4,775.1,145.4z" transform="matrix(1, 0, 0, 1, -671.0165988068325, -69.1534660152002)" style="fill: rgb(255, 176, 156);"/><path d="M 716.699988 144.600006 A 4.9 4.9 0 0 1 711.799988 149.500006 A 4.9 4.9 0 0 1 706.899988 144.600006 A 4.9 4.9 0 0 1 711.799988 139.700006 A 4.9 4.9 0 0 1 716.699988 144.600006 Z" fill="#562617" transform="matrix(1, 0, 0, 1, -671.0165988068325, -69.1534660152002)"/><path d="M 760.9 144.600006 A 4.9 4.9 0 0 1 756 149.500006 A 4.9 4.9 0 0 1 751.1 144.600006 A 4.9 4.9 0 0 1 756 139.700006 A 4.9 4.9 0 0 1 760.9 144.600006 Z" fill="#562617" transform="matrix(1, 0, 0, 1, -671.0165988068325, -69.1534660152002)"/><path fill="#FFFFFF" d="M719,167c0,0.5,0,1,0,1.5c0,8,6.7,14.8,14.9,14.9l0,0c8.2-0.1,14.9-6.9,14.9-14.9c0-0.5,0-1,0-1.5&#10;&#9;&#9;&#9;C738.9,165.5,728.9,165.5,719,167z" transform="matrix(1, 0, 0, 1, -671.0165988068325, -69.1534660152002)"/><path fill="#552419" d="M777.4,94.8c0,0,6.5-9.8,1.9-12.9c-4.6-3.1-16.9,1.5-16.9,1.5s4.6-6.5-1.6-9.4c-6.2-2.9-20.7,7.8-20.7,7.8&#10;&#9;&#9;&#9;s4.6-5.7-2.7-7.6c-7.3-1.9-44.9,10-49.1,32.6c-3.8,20.3,4.2,38.5,4.2,38.5h0.1c0,0,11.6-12.9,11.6-34.7c0,0,12.4,3.2,29.6,3.2&#10;&#9;&#9;&#9;c17.2,0,29.5-3.2,29.5-3.2c0,21.8,11.6,34.7,11.6,34.7h0C792.1,108,777.4,94.8,777.4,94.8z" transform="matrix(1, 0, 0, 1, -671.0165988068325, -69.1534660152002)" style="fill: rgb(137, 73, 43);"/><path fill="#9B8579" d="M752.1,254.4v-34.2h-6.4v-17.4c0,0,19.8,1,28,21.3l-12.9,30.3H752.1z" transform="matrix(1, 0, 0, 1, -671.0165988068325, -69.1534660152002)"/><path fill="#9B8579" d="M715.7,254.4v-34.2h6.4v-17.4c0,0-19.8,1-28,21.3l12.9,30.3H715.7z" transform="matrix(1, 0, 0, 1, -671.0165988068325, -69.1534660152002)"/>
</svg>